<svg width="48" xmlns="http://www.w3.org/2000/svg" height="48" id="screenshot-07b29f65-a35e-8095-8007-1ae5aa01974a" viewBox="0 -0 48 48" xmlns:xlink="http://www.w3.org/1999/xlink" fill="none" version="1.1"><g id="shape-07b29f65-a35e-8095-8007-1ae5aa01974a" width="300" height="300" xml-space="preserve" rx="0" ry="0" style="fill: rgb(0, 0, 0);"><g id="shape-07b29f65-a35e-8095-8007-1ae5aa01974b" style="display: none;"><g class="fills" id="fills-07b29f65-a35e-8095-8007-1ae5aa01974b"><rect width="48" height="48" x="0" transform="matrix(1.000000, 0.000000, 0.000000, 1.000000, 0.000000, 0.000000)" style="fill: none;" ry="0" fill="none" rx="0" y="0"/></g></g><g id="shape-07b29f65-a35e-8095-8007-1ae5aa01974c"><g class="fills" id="fills-07b29f65-a35e-8095-8007-1ae5aa01974c"><path d="M26.452880859375,34.93966293334961C25.3203125,34.94118881225586,24.2333984375,35.544063568115234,23.66552734375,36.607479095458984C22.83984375,38.15432357788086,23.434814453125,40.072078704833984,24.999755859375,40.90749740600586C26.564697265625,41.74294662475586,28.4931640625,41.17245101928711,29.319091796875,39.625606536865234C30.144775390625,38.078792572021484,29.545654296875,36.158870697021484,27.98046875,35.323421478271484C27.49169921875,35.06234359741211,26.967529296875,34.938961029052734,26.452880859375,34.93966293334961Z" style="stroke: none; stroke-width: 2.64583; stroke-linecap: round; stroke-dasharray: none; stroke-opacity: 1; fill: rgb(91, 142, 125); fill-opacity: 1;"/></g></g><g id="shape-07b29f65-a35e-8095-8007-1ae5aa01974d"><g class="fills" id="fills-07b29f65-a35e-8095-8007-1ae5aa01974d"><path d="M16.512451171875,29.6328067779541C15.380126953125,29.634302139282227,14.29296875,30.23748207092285,13.725341796875,31.300928115844727C13.21435546875,32.25802230834961,13.24755859375,33.356990814208984,13.717529296875,34.25374984741211C14.177734375,34.72793197631836,14.6650390625,35.198726654052734,15.18115234375,35.662471771240234C16.72314453125,36.40603256225586,18.57421875,35.82571029663086,19.378662109375,34.31875228881836C20.20458984375,32.771907806396484,19.605224609375,30.8522891998291,18.040283203125,30.016870498657227C17.55126953125,29.75579261779785,17.02734375,29.632104873657227,16.512451171875,29.6328067779541Z" style="stroke: none; stroke-width: 2.64583; stroke-linecap: round; stroke-dasharray: none; stroke-opacity: 1; fill: rgb(91, 142, 125); fill-opacity: 1;"/></g></g><g id="shape-07b29f65-a35e-8095-8007-1ae5aa01974e"><g class="fills" id="fills-07b29f65-a35e-8095-8007-1ae5aa01974e"><path d="M25.99658203125,27.724023818969727C26.01318359375,27.723840713500977,26.060546875,27.726709365844727,26.0771484375,27.727807998657227C26.09375,27.7288761138916,26.14013671875,27.73198890686035,26.156494140625,27.7343692779541C26.173095703125,27.736780166625977,26.21875,27.746606826782227,26.23486328125,27.75029945373535C26.251220703125,27.753992080688477,26.294921875,27.7665958404541,26.31103515625,27.77153968811035C26.32666015625,27.776514053344727,26.36865234375,27.7918643951416,26.38427734375,27.798120498657227L26.384765625,27.7984561920166C26.404296875,27.806238174438477,26.456298828125,27.829492568969727,26.474609375,27.83904457092285C26.4931640625,27.8486270904541,26.546630859375,27.8776798248291,26.56396484375,27.889062881469727C26.58154296875,27.90044593811035,26.626953125,27.934473037719727,26.64306640625,27.9475040435791C26.659423828125,27.96050453186035,26.70361328125,27.999475479125977,26.718505859375,28.014062881469727C26.7333984375,28.02861976623535,26.774169921875,28.07183265686035,26.78759765625,28.087793350219727C26.80078125,28.103784561157227,26.835693359375,28.149682998657227,26.847412109375,28.1668643951416C26.859375,28.184045791625977,26.88818359375,28.233301162719727,26.898193359375,28.251550674438477C26.908203125,28.269800186157227,26.935546875,28.321496963500977,26.94384765625,28.34063148498535L28.261474609375,31.436243057250977L29.72607421875,32.25686264038086L29.7314453125,32.259029388427734C29.7529296875,32.27004623413086,29.7958984375,32.29494857788086,29.812744140625,32.305599212646484C29.83056640625,32.31692123413086,29.87890625,32.349422454833984,29.8955078125,32.36245346069336C29.912353515625,32.375545501708984,29.95849609375,32.415645599365234,29.9736328125,32.430294036865234C29.989013671875,32.444942474365234,30.029052734375,32.487972259521484,30.042724609375,32.50405502319336C30.056640625,32.52010726928711,30.0908203125,32.56576156616211,30.102783203125,32.58309555053711C30.11474609375,32.600460052490234,30.14599609375,32.650569915771484,30.15625,32.669063568115234C30.16650390625,32.687496185302734,30.1923828125,32.74123764038086,30.20068359375,32.760616302490234C30.208984375,32.779964447021484,30.23095703125,32.83523178100586,30.2373046875,32.855281829833984C30.24365234375,32.875362396240234,30.258544921875,32.930965423583984,30.2626953125,32.951534271240234C30.26708984375,32.972103118896484,30.27587890625,33.02877426147461,30.278076171875,33.049678802490234C30.2802734375,33.070552825927734,30.281494140625,33.13119125366211,30.281494140625,33.15218734741211C30.28173828125,33.173152923583984,30.281494140625,33.231319427490234,30.279296875,33.25216293334961C30.27734375,33.273006439208984,30.26806640625,33.33199691772461,30.263671875,33.352474212646484C30.259521484375,33.37301254272461,30.243408203125,33.42812728881836,30.2373046875,33.448116302490234C30.23095703125,33.468074798583984,30.209716796875,33.523250579833984,30.20166015625,33.542476654052734C30.193359375,33.561702728271484,30.168701171875,33.61233139038086,30.158447265625,33.630611419677734C30.148193359375,33.64889144897461,30.1181640625,33.70064926147461,30.106201171875,33.71780014038086C30.09423828125,33.734920501708984,30.0576171875,33.78133773803711,30.0439453125,33.797176361083984C30.0302734375,33.81301498413086,29.991455078125,33.85311508178711,29.976318359375,33.867488861083984C29.9609375,33.88186264038086,29.9140625,33.92000961303711,29.8974609375,33.932796478271484C29.880859375,33.94558334350586,29.83349609375,33.97927474975586,29.815673828125,33.990291595458984C29.7978515625,34.001338958740234,29.7470703125,34.02956771850586,29.72802734375,34.03872299194336C29.709228515625,34.04793930053711,29.654296875,34.07088851928711,29.634765625,34.078121185302734C29.614990234375,34.08535385131836,29.56005859375,34.10165023803711,29.53955078125,34.10683822631836C29.519287109375,34.112056732177734,29.46240234375,34.12435531616211,29.441650390625,34.127498626708984C29.420654296875,34.13064193725586,29.3623046875,34.13674545288086,29.34130859375,34.137813568115234C29.3203125,34.138851165771484,29.260498046875,34.13857650756836,29.2392578125,34.13747787475586C29.21826171875,34.13637924194336,29.159423828125,34.130672454833984,29.138427734375,34.127498626708984C29.11767578125,34.12429428100586,29.05908203125,34.11367416381836,29.03857421875,34.10842514038086C29.01806640625,34.103145599365234,28.96044921875,34.084468841552734,28.940673828125,34.07717514038086C28.9208984375,34.06991195678711,28.8681640625,34.048580169677734,28.84912109375,34.039363861083984C28.83154296875,34.030941009521484,28.789306640625,34.00539779663086,28.767822265625,33.992794036865234L28.759765625,33.98904037475586L26.9873046875,32.99685287475586C26.971923828125,32.98836898803711,26.928466796875,32.964046478271484,26.9140625,32.954341888427734C26.899658203125,32.94466781616211,26.861083984375,32.915523529052734,26.84765625,32.904659271240234C26.833984375,32.89382553100586,26.796142578125,32.86159896850586,26.783447265625,32.849666595458984C26.770751953125,32.83773422241211,26.73876953125,32.804744720458984,26.72705078125,32.791866302490234C26.715576171875,32.778926849365234,26.685302734375,32.73940658569336,26.6748046875,32.72561264038086C26.6640625,32.711788177490234,26.63525390625,32.672725677490234,26.6259765625,32.65810775756836C26.61669921875,32.643489837646484,26.590576171875,32.601558685302734,26.58251953125,32.586238861083984C26.574462890625,32.570919036865234,26.5537109375,32.527767181396484,26.546875,32.51186752319336L25.43896484375,29.901514053344727L22.77001953125,30.5887393951416L23.9267578125,32.745601654052734C23.939697265625,32.769710540771484,23.97216796875,32.83944320678711,23.98193359375,32.864986419677734C23.991455078125,32.89052963256836,24.01513671875,32.96346664428711,24.021240234375,32.98995590209961C24.02734375,33.01650619506836,24.04052734375,33.090084075927734,24.043212890625,33.11715316772461C24.0458984375,33.14425277709961,24.047119140625,33.22188949584961,24.04638671875,33.24905014038086C24.04541015625,33.276180267333984,24.03662109375,33.34914779663086,24.0322265625,33.375911712646484C24.02783203125,33.40267562866211,24.012451171875,33.477474212646484,24.00439453125,33.503414154052734C23.99658203125,33.529354095458984,23.967529296875,33.600337982177734,23.956298828125,33.62496566772461C23.94482421875,33.64962387084961,23.9091796875,33.71767807006836,23.894775390625,33.740596771240234L21.7646484375,37.11654281616211C21.763671875,37.118099212646484,21.762451171875,37.122615814208984,21.76123046875,37.12466049194336C21.74853515625,37.14571762084961,21.72216796875,37.18423080444336,21.7109375,37.199642181396484C21.69873046875,37.216609954833984,21.662841796875,37.263423919677734,21.64892578125,37.279048919677734C21.63525390625,37.294673919677734,21.592529296875,37.33675765991211,21.5771484375,37.35091781616211C21.561767578125,37.36507797241211,21.519287109375,37.40212631225586,21.50244140625,37.414669036865234C21.48583984375,37.42721176147461,21.435791015625,37.46010971069336,21.41796875,37.47091293334961C21.39990234375,37.48171615600586,21.3505859375,37.507930755615234,21.33154296875,37.51687240600586C21.3125,37.52578353881836,21.2578125,37.54891586303711,21.23828125,37.555904388427734C21.21826171875,37.562923431396484,21.1630859375,37.57967758178711,21.142822265625,37.584651947021484C21.12255859375,37.58962631225586,21.062744140625,37.601436614990234,21.0419921875,37.604366302490234C21.02099609375,37.607234954833984,20.964111328125,37.61104965209961,20.943115234375,37.611873626708984C20.922119140625,37.612728118896484,20.8623046875,37.612545013427734,20.84130859375,37.611263275146484C20.8203125,37.609981536865234,20.762451171875,37.60213851928711,20.74169921875,37.598751068115234C20.720703125,37.59536361694336,20.662109375,37.58510971069336,20.6416015625,37.57967758178711C20.62109375,37.574275970458984,20.5673828125,37.554622650146484,20.54736328125,37.54720687866211C20.52783203125,37.53976058959961,20.47216796875,37.51717758178711,20.453125,37.507808685302734C20.43408203125,37.498470306396484,20.384521484375,37.470272064208984,20.36669921875,37.45907211303711C20.3486328125,37.447872161865234,20.297607421875,37.413509368896484,20.281005859375,37.400630950927734C20.26416015625,37.387691497802734,20.220947265625,37.348567962646484,20.20556640625,37.33407211303711C20.1904296875,37.319576263427734,20.149169921875,37.27938461303711,20.13525390625,37.26345443725586C20.12158203125,37.247493743896484,20.084716796875,37.200374603271484,20.072509765625,37.18313217163086C20.060546875,37.16592025756836,20.029296875,37.115230560302734,20.01904296875,37.09688949584961C20.0087890625,37.078548431396484,19.98193359375,37.02737045288086,19.973388671875,37.00814437866211C19.965087890625,36.988887786865234,19.9462890625,36.934688568115234,19.939697265625,36.91469955444336C19.93310546875,36.894710540771484,19.91552734375,36.837703704833984,19.9111328125,36.81722640991211C19.90673828125,36.79671859741211,19.8994140625,36.73708724975586,19.897216796875,36.716243743896484C19.89501953125,36.69546127319336,19.891845703125,36.64028549194336,19.8916015625,36.619380950927734C19.891357421875,36.598445892333984,19.89306640625,36.53738021850586,19.89501953125,36.51656723022461C19.89697265625,36.49575424194336,19.905029296875,36.439571380615234,19.9091796875,36.419063568115234C19.9130859375,36.398555755615234,19.9267578125,36.342159271240234,19.932861328125,36.322200775146484C19.93896484375,36.302242279052734,19.9580078125,36.245845794677734,19.9658203125,36.22658920288086C19.97412109375,36.20730209350586,19.9990234375,36.15676498413086,20.009033203125,36.13845443725586C20.0185546875,36.121150970458984,20.0458984375,36.07613754272461,20.058837890625,36.056575775146484L20.061279296875,36.05123519897461L21.888671875,33.15749740600586L20.410888671875,30.396570205688477C20.39990234375,30.37578773498535,20.369384765625,30.317468643188477,20.360595703125,30.295618057250977C20.351806640625,30.273767471313477,20.33251953125,30.21172523498535,20.326171875,30.1890811920166C20.320068359375,30.1663761138916,20.307373046875,30.1013126373291,20.3037109375,30.0781192779541C20.300048828125,30.0549259185791,20.29150390625,29.991235733032227,20.29052734375,29.967798233032227C20.28955078125,29.944360733032227,20.29052734375,29.8780460357666,20.292236328125,29.85466957092285C20.2939453125,29.8312931060791,20.3017578125,29.76641273498535,20.305908203125,29.743432998657227C20.310302734375,29.720422744750977,20.324951171875,29.65703773498535,20.33203125,29.634668350219727C20.3388671875,29.612329483032227,20.363037109375,29.5507755279541,20.37255859375,29.529382705688477C20.3818359375,29.5079288482666,20.41259765625,29.449243545532227,20.42431640625,29.4290714263916C20.43603515625,29.40886878967285,20.4716796875,29.355005264282227,20.485595703125,29.336267471313477C20.49951171875,29.3174991607666,20.541015625,29.268274307250977,20.556884765625,29.251245498657227C20.572998046875,29.234216690063477,20.619873046875,29.188867568969727,20.6376953125,29.17376136779785C20.65576171875,29.158655166625977,20.707763671875,29.11956214904785,20.727294921875,29.1065616607666C20.74658203125,29.09356117248535,20.804443359375,29.06072425842285,20.8251953125,29.04998207092285C20.84619140625,29.039270401000977,20.90576171875,29.0132999420166,20.927734375,29.0049991607666C20.94970703125,28.9966983795166,21.01318359375,28.9748477935791,21.035888671875,28.969079971313477L25.76220703125,27.7549991607666C25.7783203125,27.75090980529785,25.82275390625,27.7405948638916,25.839111328125,27.737817764282227C25.85546875,27.73504066467285,25.902587890625,27.729639053344727,25.9189453125,27.7281436920166C25.935546875,27.726587295532227,25.97998046875,27.724267959594727,25.99658203125,27.724084854125977Z" style="stroke: none; stroke-width: 2.64583; stroke-linecap: round; stroke-dasharray: none; stroke-opacity: 1; fill: rgb(255, 0, 0); fill-opacity: 1;"/></g></g><g id="shape-07b29f65-a35e-8095-8007-1ae5aa01974f"><g class="fills" id="fills-07b29f65-a35e-8095-8007-1ae5aa01974f"><path d="M29.0986328125,26.098413467407227C29.37158203125,26.0977725982666,29.6494140625,26.162683486938477,29.90771484375,26.300622940063477C30.734619140625,26.742029190063477,31.05126953125,27.76238441467285,30.614990234375,28.579675674438477C30.1787109375,29.3969669342041,29.15478515625,29.70171546936035,28.327880859375,29.26030921936035C27.5009765625,28.81890296936035,27.184326171875,27.798547744750977,27.62060546875,26.98125648498535C27.920654296875,26.41936683654785,28.498291015625,26.099878311157227,29.0986328125,26.098413467407227Z" style="stroke: none; stroke-width: 2.64583; stroke-linecap: round; stroke-dasharray: none; stroke-opacity: 1; fill: rgb(255, 0, 0); fill-opacity: 1;"/></g></g><g id="shape-07b29f65-a35e-8095-8007-1ae5aa01ed63"><g class="fills" id="fills-07b29f65-a35e-8095-8007-1ae5aa01ed63"><path d="M9.854736328125,14.004054069519043C8.995849609375,14.993617057800293,8.11865234375,16.0881290435791,7.281494140625,17.18279457092285C5.52294921875,19.48284339904785,3.939453125,21.7823429107666,3.0166015625,23.15654945373535C3.005615234375,23.43633460998535,3,23.71746253967285,3,23.9999942779541C3,35.615718841552734,12.38427734375,44.999996185302734,24,44.999996185302734C25.73291015625,44.999996185302734,27.416015625,44.791133880615234,29.02587890625,44.39718246459961C20.40283203125,42.40401840209961,14.72998046875,38.04549789428711,11.08349609375,33.72530746459961C8.965087890625,31.2155704498291,7.5234375,28.722681045532227,6.552734375,26.711877822875977C5.582275390625,24.701074600219727,5.061767578125,23.1199893951416,4.868408203125,22.6321964263916C4.688232421875,22.177270889282227,4.696533203125,21.647119522094727,4.879150390625,21.217187881469727C5.0615234375,20.787256240844727,5.37158203125,20.456506729125977,5.733154296875,20.1696720123291C6.456298828125,19.595972061157227,7.436767578125,19.1616153717041,8.595947265625,18.7427921295166C10.914306640625,17.905176162719727,13.947265625,17.184167861938477,16.613525390625,16.40654945373535C16.892333984375,16.325220108032227,16.8564453125,16.3161563873291,16.99365234375,16.245935440063477C16.63232421875,16.015527725219727,15.979736328125,15.651331901550293,14.970703125,15.321223258972168C13.107421875,14.711756706237793,10.809326171875,14.204401969909668,9.854736328125,14.004054069519043Z" style="stroke: none; stroke-width: 2.64583; stroke-linecap: round; stroke-dasharray: none; stroke-opacity: 1; fill: rgb(91, 142, 125); fill-opacity: 1;"/></g></g><g id="shape-07b29f65-a35e-8095-8007-1ae5aa01ed64"><g class="fills" id="fills-07b29f65-a35e-8095-8007-1ae5aa01ed64"><path d="M14.5029296875,10.116236686706543C14.32080078125,10.121455192565918,13.8798828125,10.273371696472168,13.343994140625,10.638087272644043C12.808349609375,11.002863883972168,12.17529296875,11.552454948425293,11.5048828125,12.220942497253418C11.37109375,12.354548454284668,11.235595703125,12.492671012878418,11.0986328125,12.635310173034668C12.261962890625,12.896052360534668,13.9697265625,13.311152458190918,15.4677734375,13.801234245300293C16.752685546875,14.221522331237793,17.849365234375,14.585352897644043,18.55419921875,15.328425407409668C18.730224609375,15.514185905456543,18.89990234375,15.753931999206543,18.95556640625,16.084375381469727C19.01123046875,16.414819717407227,18.895263671875,16.79326820373535,18.7041015625,17.0396671295166C18.321533203125,17.53252601623535,17.80322265625,17.72600746154785,17.062255859375,17.942163467407227C14.340087890625,18.736108779907227,11.31103515625,19.46282386779785,9.139404296875,20.247461318969727C8.053466796875,20.63982582092285,7.18310546875,21.061365127563477,6.7275390625,21.422815322875977C6.499755859375,21.6035099029541,6.386962890625,21.759668350219727,6.351806640625,21.8421573638916C6.31689453125,21.924707412719727,6.312255859375,21.93108558654785,6.3564453125,22.042810440063477C6.6123046875,22.6882266998291,7.06787109375,24.097986221313477,7.99365234375,26.0162296295166C8.919677734375,27.93450355529785,10.293701171875,30.31011390686035,12.305908203125,32.69405746459961C12.393798828125,32.79806137084961,12.482666015625,32.902217864990234,12.57275390625,33.00625228881836C12.529541015625,32.306026458740234,12.6728515625,31.587732315063477,13.025390625,30.92717933654785C13.730224609375,29.606836318969727,15.092529296875,28.854272842407227,16.506591796875,28.8499698638916C17.1494140625,28.848047256469727,17.802490234375,29.0008487701416,18.40966796875,29.32500648498535C20.352783203125,30.362268447875977,21.10009765625,32.769771575927734,20.07470703125,34.690303802490234C19.3515625,36.044734954833984,17.9365234375,36.801631927490234,16.48388671875,36.766231536865234C18.53466796875,38.404170989990234,20.98583984375,39.911251068115234,23.918701171875,41.11593246459961C22.52001953125,39.92885971069336,22.0771484375,37.898311614990234,22.965576171875,36.233760833740234C23.67041015625,34.913387298583984,25.03271484375,34.16115951538086,26.446533203125,34.156856536865234C27.08935546875,34.15493392944336,27.742919921875,34.30739974975586,28.35009765625,34.63155746459961C30.29296875,35.668819427490234,31.0400390625,38.076656341552734,30.0146484375,39.997188568115234C29.31494140625,41.30825424194336,27.966796875,42.059383392333984,26.5634765625,42.07406234741211C28.2734375,42.614803314208984,30.12646484375,43.05593490600586,32.134765625,43.37185287475586C37.770751953125,41.008113861083984,42.14990234375,36.25948715209961,44.0166015625,30.381250381469727C43.173095703125,28.87578773498535,41.54541015625,26.0715274810791,39.63916015625,23.303125381469727C38.240234375,21.271936416625977,36.689453125,19.262537002563477,35.2275390625,17.8287296295166C33.765625,16.39495277404785,32.392822265625,15.650233268737793,31.62060546875,15.725306510925293C27.12548828125,16.16240882873535,24.69580078125,20.355005264282227,24.69580078125,20.355005264282227L23.9892578125,21.59404945373535L23.2998046875,20.345605850219727C23.2998046875,20.345605850219727,21.832763671875,17.6931095123291,19.93603515625,15.068415641784668C18.987548828125,13.756098747253418,17.930419921875,12.454157829284668,16.93359375,11.520625114440918C15.9365234375,10.587092399597168,14.993408203125,10.102290153503418,14.5029296875,10.116236686706543Z" style="stroke: none; stroke-width: 2.64583; stroke-linecap: round; stroke-dasharray: none; stroke-opacity: 1; fill: rgb(91, 142, 125); fill-opacity: 1;"/></g></g><g id="shape-07b29f65-a35e-8095-8007-1ae5aa01ed65"><g class="fills" id="fills-07b29f65-a35e-8095-8007-1ae5aa01ed65"><path d="M24,2.999964714050293C13.847900390625,2.999964714050293,5.400390625,10.168299674987793,3.432861328125,19.72966957092285C4.196044921875,18.64690589904785,5.078125,17.43010902404785,6.0107421875,16.210596084594727C6.406982421875,15.692164421081543,9.130615234375,12.435664176940918,9.2734375,12.380915641784668C9.642822265625,11.973841667175293,10.013916015625,11.447901725769043,10.374755859375,11.088099479675293C11.08935546875,10.375239372253418,11.77978515625,9.767481803894043,12.444091796875,9.315302848815918C13.108154296875,8.863123893737793,13.743896484375,8.537165641784668,14.457763671875,8.516871452331543C15.75927734375,8.479823112487793,16.9033203125,9.300196647644043,18.02734375,10.352473258972168C19.151123046875,11.404749870300293,20.249267578125,12.769709587097168,21.23291015625,14.130610466003418C22.82568359375,16.3349552154541,23.609375,17.7796573638916,24.041259765625,18.5374698638916C25.16015625,17.07671546936035,27.60498046875,14.508509635925293,31.465576171875,14.133112907409668C33.169189453125,13.967463493347168,34.7578125,15.127924919128418,36.34716796875,16.686548233032227C37.9365234375,18.24517250061035,39.525390625,20.315942764282227,40.957275390625,22.394983291625977C42.396240234375,24.4846134185791,43.67431640625,26.585229873657227,44.590087890625,28.158105850219727C44.85888671875,26.814416885375977,45,25.423913955688477,45,23.9999942779541C45,12.384242057800293,35.61572265625,2.999964714050293,24,2.999964714050293Z" style="stroke: none; stroke-width: 2.64583; stroke-linecap: round; stroke-dasharray: none; stroke-opacity: 1; fill: rgb(227, 178, 60); fill-opacity: 1;"/></g></g><g id="shape-07b29f65-a35e-8095-8007-1ae5aa01ed66"><g class="fills" id="fills-07b29f65-a35e-8095-8007-1ae5aa01ed66"><path d="M24,-0.00003528608795022592C10.762939453125,-0.000004768508915731218,0,10.762904167175293,0,23.9999942779541C0,37.237056732177734,10.762939453125,47.999996185302734,24,47.999996185302734C37.237060546875,47.999996185302734,48,37.237056732177734,48,23.9999942779541C48,10.762904167175293,37.237060546875,-0.000004768508915731218,24,-0.00003528608795022592ZM24,2.999964714050293C35.61572265625,2.999964714050293,45,12.384242057800293,45,23.9999942779541C45,25.423913955688477,44.85888671875,26.814416885375977,44.590087890625,28.158105850219727C43.67431640625,26.585229873657227,42.396240234375,24.4846134185791,40.957275390625,22.394983291625977C39.525390625,20.315942764282227,37.9365234375,18.24517250061035,36.34716796875,16.686548233032227C34.7578125,15.127924919128418,33.169189453125,13.967463493347168,31.465576171875,14.133112907409668C27.60498046875,14.508509635925293,25.16015625,17.07671546936035,24.041259765625,18.5374698638916C23.609375,17.7796573638916,22.82568359375,16.3349552154541,21.23291015625,14.130610466003418C20.249267578125,12.769709587097168,19.151123046875,11.404749870300293,18.02734375,10.352473258972168C16.9033203125,9.300196647644043,15.75927734375,8.479823112487793,14.457763671875,8.516871452331543C13.743896484375,8.537165641784668,13.108154296875,8.863123893737793,12.444091796875,9.315302848815918C11.77978515625,9.767481803894043,11.08935546875,10.375239372253418,10.374755859375,11.088099479675293C10.013916015625,11.447901725769043,9.642822265625,11.973841667175293,9.2734375,12.380915641784668C9.130615234375,12.435664176940918,6.406982421875,15.692164421081543,6.0107421875,16.210596084594727C5.078125,17.43010902404785,4.196044921875,18.64690589904785,3.432861328125,19.72966957092285C5.400390625,10.168299674987793,13.847900390625,2.999964714050293,24,2.999964714050293ZM14.5029296875,10.116236686706543C14.993408203125,10.102290153503418,15.9365234375,10.587061882019043,16.93359375,11.520625114440918C17.930419921875,12.454127311706543,18.987548828125,13.756098747253418,19.93603515625,15.068415641784668C21.832763671875,17.693078994750977,23.2998046875,20.345605850219727,23.2998046875,20.345605850219727L23.9892578125,21.59404945373535L24.695556640625,20.3549747467041C24.695556640625,20.3549747467041,27.12548828125,16.162378311157227,31.62060546875,15.725306510925293C32.392578125,15.650233268737793,33.765625,16.39495277404785,35.2275390625,17.8287296295166C36.689453125,19.26250648498535,38.240234375,21.271936416625977,39.63916015625,23.303125381469727C41.54541015625,26.071496963500977,43.173095703125,28.875757217407227,44.0166015625,30.381250381469727C42.14990234375,36.259456634521484,37.770751953125,41.00808334350586,32.134765625,43.37185287475586C30.12646484375,43.05593490600586,28.2734375,42.614803314208984,26.5634765625,42.07406234741211C27.966796875,42.059383392333984,29.31494140625,41.30825424194336,30.0146484375,39.997188568115234C31.0400390625,38.07662582397461,30.29296875,35.66878890991211,28.35009765625,34.631526947021484C27.74267578125,34.30739974975586,27.08935546875,34.154903411865234,26.446533203125,34.156856536865234C25.03271484375,34.16115951538086,23.67041015625,34.913387298583984,22.965576171875,36.233760833740234C22.0771484375,37.898311614990234,22.519775390625,39.92885971069336,23.918701171875,41.115901947021484C20.98583984375,39.91122055053711,18.53466796875,38.404170989990234,16.48388671875,36.766231536865234C17.9365234375,36.80160140991211,19.3515625,36.044734954833984,20.07470703125,34.690303802490234C21.10009765625,32.769771575927734,20.352783203125,30.36223793029785,18.40966796875,29.32500648498535C17.802490234375,29.000818252563477,17.1494140625,28.848047256469727,16.506591796875,28.8499698638916C15.092529296875,28.854272842407227,13.730224609375,29.6068058013916,13.025390625,30.92717933654785C12.672607421875,31.587732315063477,12.529541015625,32.30599594116211,12.57275390625,33.00625228881836C12.482666015625,32.90218734741211,12.393798828125,32.79806137084961,12.305908203125,32.69405746459961C10.293701171875,30.31011390686035,8.91943359375,27.93450355529785,7.99365234375,26.0162296295166C7.06787109375,24.097986221313477,6.6123046875,22.688196182250977,6.3564453125,22.042810440063477C6.312255859375,21.93108558654785,6.31689453125,21.9246768951416,6.351806640625,21.8421573638916C6.386962890625,21.7596378326416,6.499755859375,21.6035099029541,6.7275390625,21.42278480529785C7.18310546875,21.061365127563477,8.053466796875,20.639795303344727,9.139404296875,20.247461318969727C11.31103515625,19.462793350219727,14.340087890625,18.736108779907227,17.06201171875,17.942163467407227C17.80322265625,17.72600746154785,18.321533203125,17.53252601623535,18.7041015625,17.0396671295166C18.895263671875,16.79326820373535,19.01123046875,16.4147891998291,18.95556640625,16.084375381469727C18.89990234375,15.753901481628418,18.730224609375,15.514185905456543,18.553955078125,15.328425407409668C17.849365234375,14.585322380065918,16.75244140625,14.221522331237793,15.4677734375,13.801234245300293C13.969482421875,13.311121940612793,12.261962890625,12.896052360534668,11.0986328125,12.635310173034668C11.235595703125,12.492671012878418,11.37109375,12.354517936706543,11.5048828125,12.220911979675293C12.17529296875,11.552424430847168,12.808349609375,11.002833366394043,13.343994140625,10.638087272644043C13.8798828125,10.273371696472168,14.32080078125,10.121424674987793,14.5029296875,10.116236686706543ZM9.854736328125,14.004023551940918C10.809326171875,14.204401969909668,13.107421875,14.711726188659668,14.970703125,15.321223258972168C15.979736328125,15.651331901550293,16.63232421875,16.015527725219727,16.99365234375,16.245935440063477C16.8564453125,16.316125869750977,16.892333984375,16.325220108032227,16.613525390625,16.40654945373535C13.947265625,17.18413734436035,10.914306640625,17.905176162719727,8.595947265625,18.7427921295166C7.436767578125,19.1616153717041,6.456298828125,19.595972061157227,5.733154296875,20.1696720123291C5.37158203125,20.45647621154785,5.0615234375,20.787256240844727,4.879150390625,21.217187881469727C4.696533203125,21.6470890045166,4.688232421875,22.1772403717041,4.868408203125,22.632165908813477C5.061767578125,23.1199893951416,5.582275390625,24.7010440826416,6.552734375,26.71184730529785C7.5234375,28.722681045532227,8.965087890625,31.2155704498291,11.08349609375,33.72530746459961C14.72998046875,38.04549789428711,20.40283203125,42.40401840209961,29.02587890625,44.397151947021484C27.416015625,44.791133880615234,25.73291015625,44.999996185302734,24,44.999996185302734C12.38427734375,44.999996185302734,3,35.615718841552734,3,23.9999942779541C3,23.71746253967285,3.005615234375,23.43633460998535,3.0166015625,23.15654945373535C3.939453125,21.782312393188477,5.52294921875,19.482812881469727,7.281494140625,17.18279457092285C8.11865234375,16.088098526000977,8.995849609375,14.993617057800293,9.854736328125,14.004023551940918ZM29.0986328125,26.098413467407227C28.498291015625,26.099878311157227,27.920654296875,26.419336318969727,27.62060546875,26.98125648498535C27.184326171875,27.79851722717285,27.5009765625,28.81890296936035,28.327880859375,29.260278701782227C29.15478515625,29.70171546936035,30.1787109375,29.3969669342041,30.614990234375,28.579675674438477C31.05126953125,27.76238441467285,30.734619140625,26.742029190063477,29.90771484375,26.300622940063477C29.6494140625,26.162683486938477,29.37158203125,26.0977725982666,29.0986328125,26.098413467407227ZM25.99658203125,27.724023818969727C25.97998046875,27.7242374420166,25.935546875,27.726587295532227,25.9189453125,27.728113174438477C25.902587890625,27.7296085357666,25.85546875,27.7349796295166,25.839111328125,27.737756729125977C25.82275390625,27.740564346313477,25.7783203125,27.750879287719727,25.76220703125,27.754968643188477L21.035888671875,28.96904945373535C21.01318359375,28.974817276000977,20.94970703125,28.996667861938477,20.927734375,29.004968643188477C20.90576171875,29.013269424438477,20.84619140625,29.03923988342285,20.8251953125,29.04998207092285C20.804443359375,29.060693740844727,20.74658203125,29.093530654907227,20.72705078125,29.1065616607666C20.707763671875,29.119531631469727,20.65576171875,29.15862464904785,20.6376953125,29.173730850219727C20.619873046875,29.1888370513916,20.572998046875,29.23418617248535,20.556884765625,29.2512149810791C20.540771484375,29.26824378967285,20.49951171875,29.3174991607666,20.485595703125,29.33623695373535C20.4716796875,29.354944229125977,20.43603515625,29.408838272094727,20.42431640625,29.429040908813477C20.41259765625,29.449243545532227,20.3818359375,29.5079288482666,20.37255859375,29.52935218811035C20.363037109375,29.550745010375977,20.3388671875,29.6122989654541,20.33203125,29.634668350219727C20.324951171875,29.657007217407227,20.310302734375,29.720422744750977,20.305908203125,29.7434024810791C20.3017578125,29.76641273498535,20.2939453125,29.8312931060791,20.292236328125,29.854639053344727C20.29052734375,29.878015518188477,20.28955078125,29.944360733032227,20.29052734375,29.967798233032227C20.29150390625,29.9912052154541,20.300048828125,30.0549259185791,20.3037109375,30.078088760375977C20.307373046875,30.101282119750977,20.320068359375,30.1663761138916,20.326171875,30.189050674438477C20.33251953125,30.211694717407227,20.351806640625,30.273767471313477,20.360595703125,30.29558753967285C20.369384765625,30.31743812561035,20.39990234375,30.37578773498535,20.410888671875,30.39653968811035L21.888671875,33.157466888427734L20.061279296875,36.051204681396484L20.058837890625,36.05654525756836C20.0458984375,36.076107025146484,20.0185546875,36.121150970458984,20.009033203125,36.138423919677734C19.9990234375,36.15676498413086,19.97412109375,36.20730209350586,19.9658203125,36.22652816772461C19.9580078125,36.24581527709961,19.93896484375,36.302181243896484,19.932861328125,36.32217025756836C19.9267578125,36.342159271240234,19.9130859375,36.398555755615234,19.9091796875,36.419063568115234C19.905029296875,36.43954086303711,19.89697265625,36.495723724365234,19.89501953125,36.516536712646484C19.89306640625,36.537349700927734,19.891357421875,36.598445892333984,19.8916015625,36.61935043334961C19.891845703125,36.64028549194336,19.89501953125,36.695430755615234,19.897216796875,36.716243743896484C19.8994140625,36.73702621459961,19.90673828125,36.796688079833984,19.9111328125,36.81716537475586C19.91552734375,36.83767318725586,19.93310546875,36.89468002319336,19.939697265625,36.914669036865234C19.9462890625,36.93465805053711,19.96484375,36.988887786865234,19.973388671875,37.008113861083984C19.98193359375,37.027339935302734,20.0087890625,37.07851791381836,20.01904296875,37.09682846069336C20.029296875,37.115169525146484,20.060302734375,37.165889739990234,20.072509765625,37.183101654052734C20.084716796875,37.200313568115234,20.12158203125,37.24746322631836,20.13525390625,37.263423919677734C20.149169921875,37.279354095458984,20.1904296875,37.31954574584961,20.20556640625,37.334041595458984C20.220947265625,37.348567962646484,20.26416015625,37.387691497802734,20.281005859375,37.40060043334961C20.297607421875,37.413509368896484,20.3486328125,37.44784164428711,20.36669921875,37.459041595458984C20.384521484375,37.47024154663086,20.43408203125,37.49843978881836,20.453125,37.507808685302734C20.47216796875,37.51717758178711,20.52783203125,37.53976058959961,20.54736328125,37.547176361083984C20.5673828125,37.554622650146484,20.62109375,37.57424545288086,20.6416015625,37.57967758178711C20.661865234375,37.58510971069336,20.720703125,37.59536361694336,20.74169921875,37.59872055053711C20.762451171875,37.602108001708984,20.8203125,37.60995101928711,20.84130859375,37.61123275756836C20.8623046875,37.612483978271484,20.922119140625,37.612667083740234,20.943115234375,37.611812591552734C20.964111328125,37.61104965209961,21.02099609375,37.607234954833984,21.0419921875,37.60433578491211C21.062744140625,37.601436614990234,21.12255859375,37.58962631225586,21.142822265625,37.58462142944336C21.1630859375,37.57967758178711,21.21826171875,37.56289291381836,21.23828125,37.555904388427734C21.2578125,37.54891586303711,21.3125,37.525753021240234,21.33154296875,37.516841888427734C21.3505859375,37.50790023803711,21.39990234375,37.481685638427734,21.41796875,37.47091293334961C21.435791015625,37.46010971069336,21.48583984375,37.427181243896484,21.50244140625,37.414669036865234C21.519287109375,37.402095794677734,21.561767578125,37.365047454833984,21.5771484375,37.350887298583984C21.592529296875,37.336727142333984,21.63525390625,37.29464340209961,21.64892578125,37.27901840209961C21.662841796875,37.263362884521484,21.69873046875,37.21657943725586,21.7109375,37.199642181396484C21.72216796875,37.184200286865234,21.74853515625,37.145687103271484,21.76123046875,37.12466049194336C21.762451171875,37.12258529663086,21.763671875,37.11812973022461,21.7646484375,37.116512298583984L23.894775390625,33.740596771240234C23.9091796875,33.717647552490234,23.94482421875,33.649593353271484,23.956298828125,33.62496566772461C23.967529296875,33.60030746459961,23.996337890625,33.529293060302734,24.00439453125,33.50338363647461C24.01220703125,33.477474212646484,24.02783203125,33.40267562866211,24.0322265625,33.375911712646484C24.03662109375,33.349117279052734,24.04541015625,33.27614974975586,24.04638671875,33.249019622802734C24.047119140625,33.221858978271484,24.0458984375,33.144222259521484,24.04296875,33.117122650146484C24.04052734375,33.090084075927734,24.02734375,33.01650619506836,24.021240234375,32.98995590209961C24.01513671875,32.96340560913086,23.991455078125,32.89046859741211,23.98193359375,32.86495590209961C23.97216796875,32.839412689208984,23.939697265625,32.76968002319336,23.9267578125,32.74557113647461L22.77001953125,30.588708877563477L25.43896484375,29.901514053344727L26.546875,32.511837005615234C26.5537109375,32.527767181396484,26.574462890625,32.57088851928711,26.58251953125,32.58620834350586C26.590576171875,32.60152816772461,26.61669921875,32.64345932006836,26.6259765625,32.658077239990234C26.63525390625,32.67269515991211,26.6640625,32.71175765991211,26.6748046875,32.72555160522461C26.68505859375,32.739376068115234,26.715576171875,32.778926849365234,26.72705078125,32.79183578491211C26.73876953125,32.804744720458984,26.770751953125,32.837703704833984,26.783447265625,32.84963607788086C26.796142578125,32.861568450927734,26.833984375,32.89382553100586,26.847412109375,32.90462875366211C26.861083984375,32.91549301147461,26.899658203125,32.944637298583984,26.9140625,32.954341888427734C26.928466796875,32.964046478271484,26.971923828125,32.988338470458984,26.9873046875,32.996822357177734L28.759765625,33.989009857177734L28.767822265625,33.99276351928711C28.7890625,34.005367279052734,28.83154296875,34.03091049194336,28.84912109375,34.03933334350586C28.8681640625,34.04854965209961,28.920654296875,34.069881439208984,28.940673828125,34.077144622802734C28.96044921875,34.084407806396484,29.01806640625,34.103145599365234,29.03857421875,34.108394622802734C29.058837890625,34.11367416381836,29.11767578125,34.12429428100586,29.138427734375,34.12746810913086C29.1591796875,34.130672454833984,29.21826171875,34.13637924194336,29.2392578125,34.13747787475586C29.260498046875,34.13857650756836,29.320068359375,34.138790130615234,29.34130859375,34.13778305053711C29.3623046875,34.13674545288086,29.420654296875,34.130611419677734,29.44140625,34.12746810913086C29.46240234375,34.124324798583984,29.519287109375,34.112056732177734,29.53955078125,34.10683822631836C29.56005859375,34.101619720458984,29.614990234375,34.08529281616211,29.634765625,34.078060150146484C29.654296875,34.07082748413086,29.709228515625,34.04787826538086,29.72802734375,34.03872299194336C29.7470703125,34.029537200927734,29.7978515625,34.00130844116211,29.815673828125,33.99026107788086C29.83349609375,33.979244232177734,29.880859375,33.945552825927734,29.8974609375,33.93276596069336C29.9140625,33.92000961303711,29.9609375,33.88186264038086,29.976318359375,33.867488861083984C29.991455078125,33.853084564208984,30.0302734375,33.81301498413086,30.0439453125,33.797176361083984C30.0576171875,33.781307220458984,30.09423828125,33.734920501708984,30.106201171875,33.717769622802734C30.1181640625,33.700618743896484,30.148193359375,33.648860931396484,30.158447265625,33.63058090209961C30.16845703125,33.61233139038086,30.193359375,33.561702728271484,30.20166015625,33.542476654052734C30.209716796875,33.52322006225586,30.23095703125,33.46804428100586,30.2373046875,33.44808578491211C30.243408203125,33.42812728881836,30.259521484375,33.372982025146484,30.263671875,33.352474212646484C30.26806640625,33.331966400146484,30.27734375,33.273006439208984,30.279296875,33.25216293334961C30.281494140625,33.23128890991211,30.28173828125,33.173152923583984,30.281494140625,33.152156829833984C30.281494140625,33.131160736083984,30.2802734375,33.07052230834961,30.278076171875,33.04964828491211C30.27587890625,33.02877426147461,30.26708984375,32.972103118896484,30.2626953125,32.951534271240234C30.258544921875,32.93093490600586,30.243408203125,32.87533187866211,30.2373046875,32.855281829833984C30.23095703125,32.835201263427734,30.208984375,32.77993392944336,30.20068359375,32.760616302490234C30.1923828125,32.741207122802734,30.16650390625,32.68746566772461,30.15625,32.66903305053711C30.14599609375,32.650569915771484,30.11474609375,32.600460052490234,30.102783203125,32.58309555053711C30.0908203125,32.565731048583984,30.056640625,32.52010726928711,30.042724609375,32.504024505615234C30.029052734375,32.48794174194336,29.989013671875,32.44491195678711,29.9736328125,32.430294036865234C29.95849609375,32.415645599365234,29.912109375,32.37551498413086,29.8955078125,32.36245346069336C29.87890625,32.349422454833984,29.83056640625,32.31692123413086,29.812744140625,32.305599212646484C29.7958984375,32.29494857788086,29.752685546875,32.27004623413086,29.7314453125,32.259029388427734L29.725830078125,32.25680160522461L28.261474609375,31.4361515045166L26.94384765625,28.340539932250977C26.935546875,28.3214054107666,26.908203125,28.269739151000977,26.89794921875,28.2514591217041C26.88818359375,28.233240127563477,26.859375,28.183984756469727,26.847412109375,28.166772842407227C26.835693359375,28.149621963500977,26.80078125,28.10369300842285,26.78759765625,28.087732315063477C26.77392578125,28.0717716217041,26.7333984375,28.028528213500977,26.71826171875,28.01397132873535C26.70361328125,27.999414443969727,26.659423828125,27.9604434967041,26.64306640625,27.947412490844727C26.626708984375,27.93438148498535,26.58154296875,27.900354385375977,26.56396484375,27.88897132873535C26.54638671875,27.87761878967285,26.4931640625,27.84856605529785,26.474609375,27.8389835357666C26.4560546875,27.82940101623535,26.404296875,27.806177139282227,26.384765625,27.798364639282227L26.38427734375,27.798059463500977C26.36865234375,27.79180335998535,26.32666015625,27.77642250061035,26.31103515625,27.7714786529541C26.294921875,27.766504287719727,26.251220703125,27.75396156311035,26.23486328125,27.7502384185791C26.21875,27.746545791625977,26.173095703125,27.736719131469727,26.156494140625,27.73430824279785C26.14013671875,27.731897354125977,26.09375,27.7288761138916,26.0771484375,27.727746963500977C26.060546875,27.726648330688477,26.01318359375,27.72381019592285,25.99658203125,27.7239933013916ZM16.512451171875,29.6328067779541C17.02734375,29.6320743560791,17.55126953125,29.755762100219727,18.040283203125,30.016870498657227C19.605224609375,30.8522891998291,20.20458984375,32.77187728881836,19.37890625,34.31875228881836C18.57421875,35.825679779052734,16.72314453125,36.406002044677734,15.18115234375,35.662471771240234C14.6650390625,35.198726654052734,14.177734375,34.72793197631836,13.717529296875,34.25374984741211C13.24755859375,33.356990814208984,13.21435546875,32.257991790771484,13.725341796875,31.3008975982666C14.29296875,30.237451553344727,15.380126953125,29.63433265686035,16.512451171875,29.6328067779541ZM26.452880859375,34.93966293334961C26.967529296875,34.93893051147461,27.49169921875,35.06234359741211,27.980712890625,35.323421478271484C29.545654296875,36.158870697021484,30.144775390625,38.07876205444336,29.319091796875,39.625606536865234C28.4931640625,41.17245101928711,26.564697265625,41.74294662475586,24.999755859375,40.907466888427734C23.434814453125,40.07204818725586,22.83984375,38.15432357788086,23.66552734375,36.607479095458984C24.2333984375,35.54403305053711,25.3203125,34.941219329833984,26.452880859375,34.93966293334961Z" style="stroke: none; stroke-width: 0.157961; stroke-opacity: 1; fill: rgb(33, 31, 27); fill-opacity: 1;"/></g></g></g></svg>